<svg width="100" height="100" viewBox="0 0 100 100" fill="none" xmlns="http://www.w3.org/2000/svg">
<circle cx="50" cy="50" r="50" fill="#572FE9" fill-opacity="0.2"/>
<g opacity="0.88" filter="url(#filter1_d_39_6)">
<path d="M20.7023 75.0362C20.4262 75.0362 20.2023 74.8123 20.2023 74.5362V35.0227C20.2023 32.2933 20.7599 29.8729 21.8752 27.7615C23.0389 25.6501 24.6147 24.0022 26.6027 22.8178C28.6392 21.5818 30.9181 20.9639 33.4395 20.9639H51.0496C51.3257 20.9639 51.5496 21.1877 51.5496 21.4639V27.0298C51.5496 27.3059 51.3257 27.5298 51.0496 27.5298H34.2395C32.106 27.5298 30.3847 28.2508 29.0756 29.6927C27.8149 31.0831 27.1845 32.8598 27.1845 35.0227V45.4916C27.1845 45.7678 27.4084 45.9916 27.6845 45.9916H48.3585C48.6347 45.9916 48.8585 46.2155 48.8585 46.4916V52.0575C48.8585 52.3337 48.6347 52.5575 48.3585 52.5575H27.6845C27.4084 52.5575 27.1845 52.7814 27.1845 53.0575V74.5362C27.1845 74.8123 26.9607 75.0362 26.6845 75.0362H20.7023Z" fill="#CFEEFD"/>
<g clip-path="url(#paint0_angular_39_6_clip_path)" data-figma-skip-parse="true"><g transform="matrix(0.0242481 -0.0139523 0.0150295 0.0261202 59.5496 48)"><foreignObject x="-1290.33" y="-1290.33" width="2580.66" height="2580.66"><div xmlns="http://www.w3.org/1999/xhtml" style="background:conic-gradient(from 90deg,rgba(84, 139, 202, 1) 0deg,rgba(84, 139, 202, 1) 29.4231deg,rgba(246, 194, 241, 0.81) 50.1923deg,rgba(84, 139, 202, 1) 77.8846deg,rgba(144, 181, 222, 1) 136.731deg,rgba(84, 139, 202, 1) 292.5deg,rgba(234, 226, 165, 0.87) 330.646deg,rgba(84, 139, 202, 1) 360deg);height:100%;width:100%;opacity:1"></div></foreignObject></g></g><path d="M59.5496 21C59.5496 20.7239 59.7736 20.4994 60.0496 20.5058C66.2995 20.6519 72.2661 23.5311 76.6955 28.5546C81.2429 33.7118 83.7977 40.7065 83.7977 48C83.7977 55.2934 81.243 62.2881 76.6956 67.4454C72.2662 72.4688 66.2996 75.3481 60.0497 75.4942C59.7736 75.5006 59.5496 75.2761 59.5496 75L59.5496 52.837C59.5496 52.5608 59.7746 52.3407 60.0478 52.3C60.8781 52.1763 61.6549 51.7457 62.2536 51.0667C62.9708 50.2533 63.3737 49.1502 63.3737 48C63.3737 46.8498 62.9708 45.7466 62.2536 44.9333C61.6549 44.2543 60.8781 43.8237 60.0478 43.7C59.7746 43.6593 59.5496 43.4392 59.5496 43.163L59.5496 21Z" data-figma-gradient-fill="{&#34;type&#34;:&#34;GRADIENT_ANGULAR&#34;,&#34;stops&#34;:[{&#34;color&#34;:{&#34;r&#34;:0.33112981915473938,&#34;g&#34;:0.54606801271438599,&#34;b&#34;:0.79387021064758301,&#34;a&#34;:1.0},&#34;position&#34;:0.0},{&#34;color&#34;:{&#34;r&#34;:0.33112981915473938,&#34;g&#34;:0.54606801271438599,&#34;b&#34;:0.79387021064758301,&#34;a&#34;:1.0},&#34;position&#34;:0.081730768084526062},{&#34;color&#34;:{&#34;r&#34;:0.96699333190917969,&#34;g&#34;:0.76377588510513306,&#34;b&#34;:0.94667154550552368,&#34;a&#34;:0.81000000238418579},&#34;position&#34;:0.13942307233810425},{&#34;color&#34;:{&#34;r&#34;:0.32941177487373352,&#34;g&#34;:0.54509806632995605,&#34;b&#34;:0.79215687513351440,&#34;a&#34;:1.0},&#34;position&#34;:0.21634615957736969},{&#34;color&#34;:{&#34;r&#34;:0.56832468509674072,&#34;g&#34;:0.71029984951019287,&#34;b&#34;:0.87398296594619751,&#34;a&#34;:1.0},&#34;position&#34;:0.37980768084526062},{&#34;color&#34;:{&#34;r&#34;:0.33112981915473938,&#34;g&#34;:0.54606801271438599,&#34;b&#34;:0.79387021064758301,&#34;a&#34;:1.0},&#34;position&#34;:0.81250},{&#34;color&#34;:{&#34;r&#34;:0.91783004999160767,&#34;g&#34;:0.88652229309082031,&#34;b&#34;:0.64947760105133057,&#34;a&#34;:0.87000000476837158},&#34;position&#34;:0.91846084594726562}],&#34;stopsVar&#34;:[{&#34;color&#34;:{&#34;r&#34;:0.33112981915473938,&#34;g&#34;:0.54606801271438599,&#34;b&#34;:0.79387021064758301,&#34;a&#34;:1.0},&#34;position&#34;:0.0},{&#34;color&#34;:{&#34;r&#34;:0.33112981915473938,&#34;g&#34;:0.54606801271438599,&#34;b&#34;:0.79387021064758301,&#34;a&#34;:1.0},&#34;position&#34;:0.081730768084526062},{&#34;color&#34;:{&#34;r&#34;:0.96699333190917969,&#34;g&#34;:0.76377588510513306,&#34;b&#34;:0.94667154550552368,&#34;a&#34;:0.81000000238418579},&#34;position&#34;:0.13942307233810425},{&#34;color&#34;:{&#34;r&#34;:0.32941177487373352,&#34;g&#34;:0.54509806632995605,&#34;b&#34;:0.79215687513351440,&#34;a&#34;:1.0},&#34;position&#34;:0.21634615957736969},{&#34;color&#34;:{&#34;r&#34;:0.56832468509674072,&#34;g&#34;:0.71029984951019287,&#34;b&#34;:0.87398296594619751,&#34;a&#34;:1.0},&#34;position&#34;:0.37980768084526062},{&#34;color&#34;:{&#34;r&#34;:0.33112981915473938,&#34;g&#34;:0.54606801271438599,&#34;b&#34;:0.79387021064758301,&#34;a&#34;:1.0},&#34;position&#34;:0.81250},{&#34;color&#34;:{&#34;r&#34;:0.91783004999160767,&#34;g&#34;:0.88652229309082031,&#34;b&#34;:0.64947760105133057,&#34;a&#34;:0.87000000476837158},&#34;position&#34;:0.91846084594726562}],&#34;transform&#34;:{&#34;m00&#34;:48.496208190917969,&#34;m01&#34;:30.059093475341797,&#34;m02&#34;:20.271907806396484,&#34;m10&#34;:-27.904664993286133,&#34;m11&#34;:52.240436553955078,&#34;m12&#34;:35.832111358642578},&#34;opacity&#34;:1.0,&#34;blendMode&#34;:&#34;NORMAL&#34;,&#34;visible&#34;:true}"/>
<path opacity="0.8" d="M59.5496 39.9551C61.4061 39.9551 63.1866 40.8038 64.4993 42.3144C65.8121 43.8251 66.5496 45.874 66.5496 48.0104C66.5496 50.1468 65.8121 52.1957 64.4993 53.7063C63.1866 55.217 61.4061 56.0657 59.5496 56.0657L59.5496 52.3534C60.5505 52.3534 61.5105 51.8958 62.2182 51.0813C62.926 50.2669 63.3236 49.1622 63.3236 48.0104C63.3236 46.8585 62.926 45.7539 62.2182 44.9394C61.5104 44.1249 60.5505 43.6674 59.5496 43.6674L59.5496 39.9551Z" fill="#F5F5F5"/>
</g>
<defs>
<filter id="filter1_d_39_6" x="14.2023" y="15.5" width="75.5953" height="67" filterUnits="userSpaceOnUse" color-interpolation-filters="sRGB">
<feFlood flood-opacity="0" result="BackgroundImageFix"/>
<feColorMatrix in="SourceAlpha" type="matrix" values="0 0 0 0 0 0 0 0 0 0 0 0 0 0 0 0 0 0 127 0" result="hardAlpha"/>
<feOffset dy="1"/>
<feGaussianBlur stdDeviation="3"/>
<feComposite in2="hardAlpha" operator="out"/>
<feColorMatrix type="matrix" values="0 0 0 0 0 0 0 0 0 0 0 0 0 0 0 0 0 0 0.32 0"/>
<feBlend mode="normal" in2="BackgroundImageFix" result="effect1_dropShadow_39_6"/>
<feBlend mode="normal" in="SourceGraphic" in2="effect1_dropShadow_39_6" result="shape"/>
</filter>
<clipPath id="paint0_angular_39_6_clip_path"><path d="M59.5496 21C59.5496 20.7239 59.7736 20.4994 60.0496 20.5058C66.2995 20.6519 72.2661 23.5311 76.6955 28.5546C81.2429 33.7118 83.7977 40.7065 83.7977 48C83.7977 55.2934 81.243 62.2881 76.6956 67.4454C72.2662 72.4688 66.2996 75.3481 60.0497 75.4942C59.7736 75.5006 59.5496 75.2761 59.5496 75L59.5496 52.837C59.5496 52.5608 59.7746 52.3407 60.0478 52.3C60.8781 52.1763 61.6549 51.7457 62.2536 51.0667C62.9708 50.2533 63.3737 49.1502 63.3737 48C63.3737 46.8498 62.9708 45.7466 62.2536 44.9333C61.6549 44.2543 60.8781 43.8237 60.0478 43.7C59.7746 43.6593 59.5496 43.4392 59.5496 43.163L59.5496 21Z"/></clipPath></defs>
</svg>
